@startuml
hide circle
skinparam classAttributeIconSize 0

class RegisterAgentView {
}

class RegisterAgentController {
    +createAgent(string name,string email, string phoneNumber, string branchId, string citizenCard): RealEstateAgent
    +assignAgentToBranch(agent: RealEstateAgent, branch: Branch): Result
    +assignAgentToStore(agent: RealEstateAgent, store: Store): Result
}

class RealEstateAgent {
    -id: String
    -name: String
    -citizenCardNumber: String
    +validateData(): Boolean
}

class Branch {
    -id: String
    -name: String
    +addAgent(agent: RealEstateAgent): Result
    +checkCapacity(): Boolean
}

class AgentContainer {
    +createAgent(name: String, citizenCard: String): RealEstateAgent
    +saveAgent(agent: RealEstateAgent): Result
    +isAgentUnique(agent: RealEstateAgent): Boolean
}

class BranchContainer {
    +findBranch(branchId: String): Branch
    +validateBranchAgent(agent: RealEstateAgent, branch: Branch): Boolean
}




AgentContainer "1" -right-> "0..*" RealEstateAgent : records agents


RegisterAgentView ..> RegisterAgentController
RegisterAgentController ..> RealEstateAgent
RegisterAgentController ..> BranchContainer
RegisterAgentController ..> AgentContainer
RegisterAgentController ..> Branch

@enduml
